<?xml version="1.0" standalone="no"?>
<!DOCTYPE svg PUBLIC "-//W3C//DTD SVG 20010904//EN"
 "http://www.w3.org/TR/2001/REC-SVG-20010904/DTD/svg10.dtd">
<svg version="1.0" xmlns="http://www.w3.org/2000/svg"
 width="500.000000pt" height="500.000000pt" viewBox="0 0 500.000000 500.000000"
 preserveAspectRatio="xMidYMid meet">

<g transform="translate(0.000000,500.000000) scale(0.100000,-0.100000)"
fill="#616161" stroke="none">
<path d="M2320 4734 c-111 -14 -347 -58 -420 -80 -255 -75 -481 -183 -675
-322 -204 -146 -362 -300 -501 -485 -289 -385 -436 -803 -451 -1289 -6 -197
19 -445 62 -603 57 -208 93 -303 179 -469 245 -476 615 -824 1116 -1050 253
-113 687 -193 954 -175 148 10 351 35 431 53 359 82 689 254 995 519 120 105
326 354 426 517 84 138 178 349 219 495 7 28 21 75 29 105 17 57 28 117 51
285 32 224 8 611 -51 815 -8 30 -22 80 -31 110 -20 75 -98 271 -130 328 -15
26 -31 56 -36 67 -6 11 -13 25 -16 32 -3 6 -33 54 -65 105 -172 269 -394 496
-657 671 -367 244 -761 366 -1204 372 -104 2 -206 1 -225 -1z m385 -84 c447
-49 864 -220 1173 -480 69 -58 93 -100 57 -100 -19 0 -58 -44 -66 -75 -5 -18
0 -28 22 -44 16 -12 29 -28 29 -36 0 -8 5 -15 10 -15 6 0 10 4 10 8 0 12 69 7
81 -5 5 -5 12 -30 15 -56 l7 -47 -75 1 -75 1 -58 -57 c-61 -59 -89 -75 -130
-75 -17 0 -23 -4 -19 -14 3 -7 -2 -16 -11 -19 -17 -7 -11 -52 11 -74 14 -14 8
-47 -10 -62 -8 -6 -27 -6 -56 0 -63 15 -108 5 -144 -30 -29 -29 -31 -34 -26
-83 4 -43 8 -52 23 -50 10 2 17 -3 17 -12 0 -20 33 -28 105 -24 42 2 59 7 57
16 -1 6 2 12 7 12 5 0 23 21 40 48 37 58 66 92 79 92 5 0 15 7 23 16 9 11 22
14 41 10 15 -3 28 -2 28 2 0 9 64 42 81 42 5 0 15 -12 21 -27 9 -22 12 -24 15
-10 6 23 10 22 38 -10 33 -39 41 -23 15 28 -22 41 -22 43 -4 57 24 17 89 10
115 -14 10 -9 19 -13 19 -9 0 14 51 -38 66 -67 8 -15 14 -43 14 -64 0 -28 3
-35 15 -30 9 3 15 0 15 -9 0 -29 48 -17 65 15 18 34 59 65 75 55 5 -3 10 -24
10 -45 0 -33 8 -48 53 -98 39 -44 58 -76 74 -128 15 -44 19 -72 13 -78 -12
-12 -100 -8 -117 5 -7 6 -16 8 -21 5 -5 -3 -17 3 -27 14 -10 11 -24 20 -32 20
-7 0 -16 7 -19 15 -9 23 -43 9 -82 -33 -31 -35 -34 -36 -65 -23 -17 7 -54 19
-82 26 -152 41 -157 45 -148 110 3 25 1 45 -5 49 -22 13 -235 -14 -270 -34
-26 -16 -52 -20 -116 -20 -79 0 -85 -1 -115 -31 -18 -17 -39 -28 -47 -25 -16
6 -17 -1 -14 -66 1 -35 -3 -51 -19 -67 -12 -12 -21 -25 -21 -31 0 -5 -4 -10
-8 -10 -5 0 -17 -8 -28 -17 -10 -10 -30 -24 -44 -31 -81 -42 -139 -137 -87
-144 34 -5 35 -50 2 -80 -24 -23 -26 -29 -23 -106 2 -45 6 -81 9 -80 3 2 27
-24 54 -57 27 -33 69 -82 94 -108 25 -27 46 -54 46 -60 0 -8 15 -11 40 -9 80
5 220 19 210 21 -22 4 72 31 111 31 43 0 91 -19 105 -41 4 -7 32 -14 63 -17
31 -2 60 -10 66 -17 6 -8 6 -40 -1 -97 -11 -83 -11 -86 14 -124 41 -65 127
-223 127 -234 0 -12 -57 -119 -71 -134 -21 -23 -9 -76 26 -115 34 -38 35 -40
35 -125 0 -86 1 -88 40 -141 37 -50 40 -59 40 -118 l0 -64 -71 -82 c-122 -141
-321 -308 -489 -408 -532 -321 -1174 -397 -1775 -210 -343 106 -651 299 -909
568 -296 308 -482 675 -563 1109 -24 130 -27 169 -27 375 -1 232 2 261 48 485
21 102 92 319 111 340 22 24 35 17 35 -17 0 -27 40 -87 73 -111 15 -12 18 -26
15 -98 -3 -80 -2 -85 25 -109 15 -14 27 -30 27 -35 0 -22 42 -58 61 -53 29 8
31 18 6 45 -44 47 -86 174 -70 214 6 17 49 19 59 2 5 -7 11 -36 15 -65 6 -41
15 -60 43 -89 20 -20 36 -43 36 -51 0 -7 3 -13 8 -13 17 0 34 -47 38 -103 3
-45 10 -68 29 -93 14 -19 30 -34 35 -34 5 0 7 -6 4 -14 -4 -10 13 -18 65 -30
83 -19 98 -20 103 -5 3 8 16 10 40 5 30 -5 37 -11 40 -33 3 -23 10 -28 53 -38
28 -7 62 -17 76 -23 24 -9 140 -108 147 -124 2 -5 20 -8 40 -8 l37 1 -26 14
c-25 13 -27 21 -34 104 -6 78 -9 88 -25 84 -10 -3 -20 2 -23 11 -4 9 -17 16
-29 16 -43 0 -50 12 -43 78 l5 61 -30 -17 c-16 -9 -30 -23 -30 -31 0 -7 -6
-11 -13 -8 -7 3 -24 -4 -38 -14 -45 -35 -134 -18 -161 32 -24 42 -22 84 7 147
14 30 23 57 20 62 -2 4 16 22 40 39 25 18 45 36 45 40 0 17 121 32 235 29 110
-3 120 -5 124 -23 4 -23 38 -55 58 -55 9 0 13 14 13 43 0 65 8 81 58 118 65
48 144 129 162 164 21 42 124 142 173 167 23 11 64 44 90 72 27 28 53 50 59
48 5 -1 16 2 24 8 7 7 22 9 33 5 32 -10 34 13 1 30 -37 19 -37 28 -3 55 27 21
78 22 93 2 7 -11 110 -11 110 0 0 11 44 10 56 -2 6 -6 21 -6 42 2 26 10 31 16
26 38 -8 38 -27 73 -46 88 -12 9 -18 27 -18 52 0 37 -1 38 -37 38 -20 0 -48
-4 -61 -9 -14 -5 -34 -7 -44 -3 -17 5 -20 12 -15 46 4 33 3 38 -10 34 -10 -4
-13 -2 -10 8 8 20 -94 49 -106 30 -4 -8 -15 -14 -23 -14 -8 0 -17 -7 -20 -15
-4 -8 -10 -12 -15 -9 -5 3 -9 -24 -9 -59 0 -72 -10 -86 -73 -107 -20 -6 -35
-15 -32 -20 3 -4 -16 -29 -41 -55 -62 -63 -88 -60 -90 10 -1 28 -2 55 -3 61
-1 6 -22 14 -47 17 -53 6 -91 30 -117 75 -21 36 -15 68 14 77 10 4 19 13 19
20 0 8 11 17 25 21 14 3 25 10 25 15 0 5 4 9 9 9 6 0 26 10 47 22 20 12 48 23
63 24 14 2 40 6 57 9 26 6 32 3 36 -12 5 -20 21 -22 65 -8 18 6 21 12 16 36
-5 27 -3 29 26 29 23 0 31 5 31 18 0 14 -8 17 -40 17 -44 0 -72 21 -70 51 0
10 1 31 1 47 1 17 7 27 16 27 8 0 11 5 8 10 -3 6 -28 10 -55 10 -40 0 -48 -3
-44 -15 4 -9 0 -15 -10 -15 -9 0 -16 -4 -16 -10 0 -5 6 -10 14 -10 8 0 16 -7
20 -15 13 -34 -20 -65 -68 -65 -14 0 -35 -9 -46 -20 -29 -29 -134 -29 -150 1
-6 11 -10 30 -8 42 3 19 10 22 51 25 57 4 63 22 7 22 -32 0 -51 8 -91 40 -44
34 -58 40 -99 40 -38 0 -55 -5 -76 -25 -15 -14 -25 -26 -23 -28 2 -1 13 -7 24
-13 11 -6 20 -22 20 -35 0 -22 6 -25 53 -29 51 -5 71 -19 72 -47 0 -14 -8 -15
-90 -13 -41 1 -59 6 -72 21 -9 11 -19 15 -22 10 -9 -13 -46 -2 -83 25 -19 15
-46 24 -67 24 -39 0 -54 14 -36 34 11 15 152 97 235 139 212 105 511 191 758
217 108 11 300 11 402 0z m-2036 -1557 c-1 -48 -3 -53 -9 -28 -11 45 -11 85 0
85 6 0 9 -25 9 -57z m507 -401 c-10 -2 -22 0 -28 6 -6 6 0 7 19 4 21 -5 23 -7
9 -10z"/>
<path d="M1768 2496 c-17 -20 -37 -36 -44 -36 -6 0 -17 -7 -24 -15 -7 -8 -22
-15 -35 -15 -30 0 -38 -10 -21 -29 8 -9 17 -43 21 -77 5 -49 3 -63 -9 -73 -9
-8 -16 -20 -16 -27 0 -8 -4 -14 -9 -14 -4 0 -20 -12 -35 -26 -14 -15 -26 -21
-26 -14 0 7 -3 11 -6 8 -3 -4 -7 -35 -10 -71 -2 -36 -8 -76 -13 -90 -7 -19 -5
-31 12 -55 12 -17 30 -33 39 -35 10 -3 21 -13 24 -22 4 -10 18 -29 32 -44 13
-14 31 -43 39 -63 8 -21 21 -38 29 -38 8 0 14 -5 14 -11 0 -18 50 -60 94 -79
25 -10 52 -33 68 -56 26 -39 26 -41 25 -205 -2 -140 0 -166 12 -161 10 4 13 1
8 -11 -3 -9 -2 -17 2 -17 19 0 21 -37 5 -108 l-17 -75 27 -19 c14 -11 26 -26
26 -34 0 -8 7 -25 15 -38 12 -19 13 -36 5 -104 -11 -87 -6 -109 28 -134 10 -7
22 -20 26 -28 27 -57 67 -105 138 -166 27 -22 51 -33 87 -37 28 -3 53 -2 56 4
4 5 -1 9 -10 9 -8 0 -21 11 -27 25 -6 14 -16 25 -21 25 -6 0 -7 3 -4 7 4 3 0
14 -9 24 -16 18 -16 34 2 97 4 13 3 22 -2 20 -12 -3 -84 65 -84 79 0 6 6 16
14 23 8 6 12 18 9 26 -3 8 0 21 6 28 10 11 8 16 -8 21 -13 4 -21 15 -21 30 0
24 17 35 55 35 34 0 55 10 55 26 0 8 6 14 14 14 30 0 116 64 116 87 0 5 21 37
48 72 26 34 57 76 70 93 12 17 22 25 22 17 0 -10 3 -10 12 -1 9 9 8 22 -3 54
-8 24 -14 62 -14 86 0 34 5 47 30 67 26 23 35 25 82 19 45 -5 53 -4 53 10 0 9
4 16 10 16 5 0 21 12 35 27 17 19 25 23 25 13 1 -13 2 -13 9 0 5 8 11 62 15
119 4 59 14 120 23 140 9 20 16 39 15 42 -1 4 14 23 33 42 40 42 65 93 41 84
-9 -4 -18 -2 -21 3 -4 6 0 10 7 10 7 1 0 7 -17 14 -16 8 -41 25 -55 38 -14 13
-33 27 -42 31 -11 4 -15 12 -12 22 5 13 -8 15 -92 17 -55 0 -111 0 -126 -1
-16 -1 -28 3 -28 8 0 6 -6 11 -14 11 -8 0 -28 12 -45 28 -24 22 -31 37 -35 81
-5 52 -13 65 -59 92 -15 8 -16 13 -6 25 10 12 2 14 -55 14 -54 0 -68 3 -78 19
-6 10 -18 17 -25 14 -7 -3 -13 1 -13 9 0 15 -40 61 -67 77 -16 9 -16 12 -3 21
13 8 13 10 -1 10 -9 0 -22 -6 -28 -14 -6 -8 -37 -17 -67 -21 -50 -6 -59 -4
-80 16 -13 12 -24 19 -24 16 0 -4 -10 -1 -23 8 -13 8 -44 18 -70 21 -44 6 -48
5 -79 -30z"/>
</g>
</svg>
